<?xml version="1.0" standalone="no"?>
<!DOCTYPE svg PUBLIC "-//W3C//DTD SVG 20010904//EN"
 "http://www.w3.org/TR/2001/REC-SVG-20010904/DTD/svg10.dtd">
<svg version="1.0" xmlns="http://www.w3.org/2000/svg"
 width="900.000000pt" height="600.000000pt" viewBox="0 0 900.000000 600.000000"
 preserveAspectRatio="xMidYMid meet">
<metadata>
Created by potrace 1.15, written by Peter Selinger 2001-2017
</metadata>
<g transform="translate(0.000000,600.000000) scale(0.100000,-0.100000)"
fill="#000000" stroke="none">
<path d="M4700 5350 l0 -50 -100 0 -100 0 0 -50 0 -50 -50 0 -50 0 0 -50 0
-50 -50 0 -50 0 0 -100 0 -100 -50 0 -50 0 0 -200 0 -200 -100 0 -100 0 0 -50
0 -50 -50 0 -50 0 0 -50 0 -50 -50 0 -50 0 0 -100 0 -100 -250 0 -250 0 0 -50
0 -50 150 0 150 0 0 -50 0 -50 -150 0 -150 0 0 -50 0 -50 -150 0 -150 0 0 -50
0 -50 100 0 100 0 0 -50 0 -50 100 0 100 0 0 -50 0 -50 150 0 150 0 0 -100 0
-100 50 0 50 0 0 -50 0 -50 -100 0 -100 0 0 -50 0 -50 -50 0 -50 0 0 -100 0
-100 -50 0 -50 0 0 -150 0 -150 -50 0 -50 0 0 50 0 50 -100 0 -100 0 0 -50 0
-50 -50 0 -50 0 0 -50 0 -50 -50 0 -50 0 0 -50 0 -50 -50 0 -50 0 0 -100 0
-100 50 0 50 0 0 -100 0 -100 50 0 50 0 0 -50 0 -50 250 0 250 0 0 50 0 50
100 0 100 0 0 50 0 50 50 0 50 0 0 100 0 100 100 0 100 0 0 -50 0 -50 50 0 50
0 0 -100 0 -100 -50 0 -50 0 0 -100 0 -100 -50 0 -50 0 0 -150 0 -150 -50 0
-50 0 0 -100 0 -100 -50 0 -50 0 0 -150 0 -150 -50 0 -50 0 0 -150 0 -150 50
0 50 0 0 -50 0 -50 -50 0 -50 0 0 -100 0 -100 -50 0 -50 0 0 -200 0 -200 250
0 250 0 0 50 0 50 50 0 50 0 0 100 0 100 50 0 50 0 0 100 0 100 50 0 50 0 0
50 0 50 50 0 50 0 0 50 0 50 50 0 50 0 0 -250 0 -250 50 0 50 0 0 -50 0 -50
50 0 50 0 0 -50 0 -50 300 0 300 0 0 100 0 100 -50 0 -50 0 0 50 0 50 -50 0
-50 0 0 150 0 150 50 0 50 0 0 50 0 50 50 0 50 0 0 200 0 200 -50 0 -50 0 0
300 0 300 -50 0 -50 0 0 100 0 100 350 0 350 0 0 50 0 50 50 0 50 0 0 50 0 50
50 0 50 0 0 150 0 150 -50 0 -50 0 0 50 0 50 -100 0 -100 0 0 50 0 50 -50 0
-50 0 0 -50 0 -50 -50 0 -50 0 0 -50 0 -50 -100 0 -100 0 0 50 0 50 -50 0 -50
0 0 250 0 250 -50 0 -50 0 0 50 0 50 -50 0 -50 0 0 100 0 100 50 0 50 0 0 100
0 100 100 0 100 0 0 -50 0 -50 50 0 50 0 0 100 0 100 -50 0 -50 0 0 50 0 50
100 0 100 0 0 50 0 50 200 0 200 0 0 50 0 50 -50 0 -50 0 0 50 0 50 -100 0
-100 0 0 50 0 50 -150 0 -150 0 0 50 0 50 50 0 50 0 0 50 0 50 100 0 100 0 0
50 0 50 200 0 200 0 0 50 0 50 -50 0 -50 0 0 50 0 50 -50 0 -50 0 0 50 0 50
-50 0 -50 0 0 50 0 50 -50 0 -50 0 0 50 0 50 -100 0 -100 0 0 50 0 50 -150 0
-150 0 0 -50 0 -50 -50 0 -50 0 0 -50 0 -50 -50 0 -50 0 0 -50 0 -50 -50 0
-50 0 0 150 0 150 50 0 50 0 0 100 0 100 50 0 50 0 0 50 0 50 100 0 100 0 0
50 0 50 -250 0 -250 0 0 -50z m0 -1400 l0 -50 100 0 100 0 0 -50 0 -50 50 0
50 0 0 -50 0 -50 50 0 50 0 0 -100 0 -100 -50 0 -50 0 0 -100 0 -100 -50 0
-50 0 0 -50 0 -50 -50 0 -50 0 0 -50 0 -50 -200 0 -200 0 0 -50 0 -50 250 0
250 0 0 50 0 50 50 0 50 0 0 -50 0 -50 50 0 50 0 0 -50 0 -50 -50 0 -50 0 0
50 0 50 -50 0 -50 0 0 -50 0 -50 -50 0 -50 0 0 -50 0 -50 -150 0 -150 0 0 50
0 50 -100 0 -100 0 0 50 0 50 -100 0 -100 0 0 -50 0 -50 50 0 50 0 0 -50 0
-50 50 0 50 0 0 -100 0 -100 50 0 50 0 0 -50 0 -50 50 0 50 0 0 -50 0 -50 100
0 100 0 0 -50 0 -50 50 0 50 0 0 50 0 50 50 0 50 0 0 50 0 50 50 0 50 0 0 -50
0 -50 -50 0 -50 0 0 -50 0 -50 -50 0 -50 0 0 -50 0 -50 -50 0 -50 0 0 50 0 50
-100 0 -100 0 0 50 0 50 -50 0 -50 0 0 50 0 50 -100 0 -100 0 0 -50 0 -50 50
0 50 0 0 -50 0 -50 -50 0 -50 0 0 50 0 50 -100 0 -100 0 0 200 0 200 50 0 50
0 0 50 0 50 -50 0 -50 0 0 50 0 50 50 0 50 0 0 50 0 50 -50 0 -50 0 0 50 0 50
100 0 100 0 0 50 0 50 -50 0 -50 0 0 50 0 50 -100 0 -100 0 0 -50 0 -50 -50 0
-50 0 0 50 0 50 50 0 50 0 0 150 0 150 50 0 50 0 0 -50 0 -50 50 0 50 0 0 -50
0 -50 50 0 50 0 0 150 0 150 50 0 50 0 0 -50 0 -50 50 0 50 0 0 -50 0 -50 100
0 100 0 0 200 0 200 50 0 50 0 0 -50z m-1100 -1300 l0 -50 50 0 50 0 0 -50 0
-50 50 0 50 0 0 -50 0 -50 -50 0 -50 0 0 -100 0 -100 -50 0 -50 0 0 -50 0 -50
-50 0 -50 0 0 100 0 100 -50 0 -50 0 0 50 0 50 -50 0 -50 0 0 50 0 50 -50 0
-50 0 0 50 0 50 50 0 50 0 0 -50 0 -50 50 0 50 0 0 -50 0 -50 50 0 50 0 0 -50
0 -50 50 0 50 0 0 100 0 100 -50 0 -50 0 0 100 0 100 50 0 50 0 0 -50z m-500
-200 l0 -50 50 0 50 0 0 -100 0 -100 50 0 50 0 0 -50 0 -50 -50 0 -50 0 0 -50
0 -50 -100 0 -100 0 0 100 0 100 -50 0 -50 0 0 100 0 100 50 0 50 0 0 50 0 50
50 0 50 0 0 -50z m2100 0 l0 -50 50 0 50 0 0 -100 0 -100 -50 0 -50 0 0 -100
0 -100 -50 0 -50 0 0 -50 0 -50 -50 0 -50 0 0 -100 0 -100 50 0 50 0 0 -250 0
-250 -50 0 -50 0 0 -50 0 -50 -50 0 -50 0 0 100 0 100 -50 0 -50 0 0 200 0
200 50 0 50 0 0 100 0 100 50 0 50 0 0 50 0 50 50 0 50 0 0 50 0 50 -50 0 -50
0 0 100 0 100 50 0 50 0 0 100 0 100 50 0 50 0 0 -50z m500 -50 l0 -100 50 0
50 0 0 50 0 50 50 0 50 0 0 -50 0 -50 -50 0 -50 0 0 -50 0 -50 50 0 50 0 0
-50 0 -50 -50 0 -50 0 0 -50 0 -50 -150 0 -150 0 0 100 0 100 100 0 100 0 0
50 0 50 -50 0 -50 0 0 100 0 100 50 0 50 0 0 -100z m-1100 -800 l0 -300 -50 0
-50 0 0 -100 0 -100 -50 0 -50 0 0 -100 0 -100 -100 0 -100 0 0 50 0 50 -150
0 -150 0 0 100 0 100 50 0 50 0 0 -50 0 -50 100 0 100 0 0 50 0 50 50 0 50 0
0 50 0 50 -100 0 -100 0 0 50 0 50 -50 0 -50 0 0 50 0 50 50 0 50 0 0 50 0 50
50 0 50 0 0 -50 0 -50 50 0 50 0 0 100 0 100 50 0 50 0 0 50 0 50 50 0 50 0 0
50 0 50 50 0 50 0 0 -300z m600 -700 l0 -200 -50 0 -50 0 0 -50 0 -50 -150 0
-150 0 0 50 0 50 -50 0 -50 0 0 100 0 100 50 0 50 0 0 -50 0 -50 100 0 100 0
0 100 0 100 50 0 50 0 0 50 0 50 50 0 50 0 0 -200z m-1000 -150 l0 -50 50 0
50 0 0 -50 0 -50 -100 0 -100 0 0 50 0 50 -50 0 -50 0 0 50 0 50 100 0 100 0
0 -50z m-400 -400 l0 -50 -100 0 -100 0 0 50 0 50 100 0 100 0 0 -50z m300 0
l0 -50 -100 0 -100 0 0 50 0 50 100 0 100 0 0 -50z m800 0 l0 -50 -150 0 -150
0 0 50 0 50 150 0 150 0 0 -50z"/>
<path d="M4300 3500 l0 -100 50 0 50 0 0 100 0 100 -50 0 -50 0 0 -100z"/>
<path d="M4600 3500 l0 -100 100 0 100 0 0 50 0 50 -50 0 -50 0 0 50 0 50 -50
0 -50 0 0 -100z"/>
<path d="M4200 3150 l0 -50 100 0 100 0 0 50 0 50 -100 0 -100 0 0 -50z"/>
</g>
</svg>
